G75*
%MOIN*%
%OFA0B0*%
%FSLAX25Y25*%
%IPPOS*%
%LPD*%
%AMOC8*
5,1,8,0,0,1.08239X$1,22.5*
%
%ADD10OC8,0.06800*%
%ADD11R,0.06800X0.06800*%
%ADD12C,0.18517*%
%ADD13OC8,0.06000*%
%ADD14C,0.07400*%
%ADD15C,0.06800*%
%ADD16R,0.06400X0.06400*%
%ADD17OC8,0.06400*%
%ADD18C,0.06000*%
%ADD19OC8,0.13200*%
%ADD20C,0.13300*%
%ADD21R,0.14580X0.10643*%
%ADD22R,0.08300X0.08300*%
%ADD23OC8,0.08300*%
%ADD24R,0.12800X0.12800*%
%ADD25OC8,0.12800*%
%ADD26R,0.12050X0.12050*%
%ADD27R,0.10643X0.14580*%
%ADD28OC8,0.09050*%
%ADD29C,0.40800*%
D10*
X0054375Y0157646D03*
X0054375Y0167646D03*
X0054375Y0177646D03*
X0064375Y0177646D03*
X0064375Y0167646D03*
X0064375Y0157646D03*
X0074375Y0157646D03*
X0074375Y0167646D03*
X0074375Y0177646D03*
X0074375Y0187646D03*
X0064375Y0187646D03*
X0054375Y0187646D03*
X0051250Y0205771D03*
X0051250Y0215771D03*
X0051250Y0225771D03*
X0051250Y0235771D03*
X0051250Y0245771D03*
X0041250Y0245771D03*
X0041250Y0235771D03*
X0041250Y0225771D03*
X0041250Y0215771D03*
X0031250Y0215771D03*
X0031250Y0225771D03*
X0031250Y0235771D03*
X0031250Y0245771D03*
X0031250Y0255771D03*
X0031250Y0265771D03*
X0031250Y0275771D03*
X0031250Y0285771D03*
X0031250Y0295771D03*
X0031250Y0305771D03*
X0031250Y0315771D03*
X0031250Y0325771D03*
X0031250Y0335771D03*
X0031250Y0345771D03*
X0031250Y0355771D03*
X0031250Y0365771D03*
X0031250Y0375771D03*
X0031250Y0385771D03*
X0031250Y0395771D03*
X0041250Y0395771D03*
X0051250Y0395771D03*
X0051250Y0385771D03*
X0041250Y0385771D03*
X0041250Y0375771D03*
X0051250Y0375771D03*
X0061250Y0375771D03*
X0061250Y0385771D03*
X0061250Y0395771D03*
X0080600Y0416791D03*
X0080600Y0426791D03*
X0080600Y0436791D03*
X0080600Y0446791D03*
X0080600Y0456791D03*
X0066480Y0491121D03*
X0066480Y0501121D03*
X0056480Y0501121D03*
X0046480Y0501121D03*
X0046480Y0491121D03*
X0056480Y0491121D03*
X0036480Y0491121D03*
X0036480Y0501121D03*
X0026480Y0501121D03*
X0026480Y0491121D03*
X0047250Y0544271D03*
X0057250Y0544271D03*
X0056250Y0583271D03*
X0056250Y0593271D03*
X0056250Y0603271D03*
X0046250Y0603271D03*
X0046250Y0593271D03*
X0046250Y0583271D03*
X0036250Y0583271D03*
X0036250Y0593271D03*
X0036250Y0603271D03*
X0026250Y0603271D03*
X0026250Y0593271D03*
X0026250Y0583271D03*
X0026250Y0623271D03*
X0026250Y0633271D03*
X0026250Y0643271D03*
X0036250Y0643271D03*
X0036250Y0633271D03*
X0036250Y0623271D03*
X0046250Y0623271D03*
X0046250Y0633271D03*
X0046250Y0643271D03*
X0056250Y0643271D03*
X0056250Y0633271D03*
X0056250Y0623271D03*
X0066250Y0623271D03*
X0066250Y0633271D03*
X0066250Y0643271D03*
X0076250Y0643271D03*
X0076250Y0633271D03*
X0086250Y0633271D03*
X0086250Y0643271D03*
X0088750Y0655771D03*
X0078750Y0655771D03*
X0066250Y0655771D03*
X0056250Y0655771D03*
X0046250Y0655771D03*
X0036250Y0655771D03*
X0026250Y0655771D03*
X0066250Y0603271D03*
X0076250Y0603271D03*
X0076250Y0593271D03*
X0066250Y0593271D03*
X0066250Y0583271D03*
X0086250Y0593271D03*
X0086250Y0603271D03*
X0101250Y0613896D03*
X0101250Y0623896D03*
X0098750Y0655771D03*
X0108750Y0655771D03*
X0118750Y0655771D03*
X0131250Y0655771D03*
X0141250Y0655771D03*
X0143125Y0643271D03*
X0151250Y0655771D03*
X0161250Y0652646D03*
X0161250Y0642646D03*
X0173750Y0645771D03*
X0173750Y0655771D03*
X0183750Y0655771D03*
X0193750Y0655771D03*
X0193750Y0645771D03*
X0183750Y0645771D03*
X0183750Y0635771D03*
X0193750Y0635771D03*
X0193750Y0625771D03*
X0183750Y0625771D03*
X0183750Y0615771D03*
X0193750Y0615771D03*
X0193750Y0605771D03*
X0183750Y0605771D03*
X0173750Y0605771D03*
X0173750Y0615771D03*
X0173750Y0625771D03*
X0173750Y0635771D03*
X0203750Y0635771D03*
X0203750Y0645771D03*
X0213750Y0645771D03*
X0223750Y0645771D03*
X0223750Y0655771D03*
X0233750Y0655771D03*
X0243750Y0655771D03*
X0243750Y0645771D03*
X0233750Y0645771D03*
X0233750Y0635771D03*
X0243750Y0635771D03*
X0243750Y0625771D03*
X0233750Y0625771D03*
X0233750Y0615771D03*
X0243750Y0615771D03*
X0243750Y0605771D03*
X0233750Y0605771D03*
X0223750Y0605771D03*
X0223750Y0615771D03*
X0223750Y0625771D03*
X0223750Y0635771D03*
X0213750Y0635771D03*
X0213750Y0625771D03*
X0213750Y0615771D03*
X0213750Y0605771D03*
X0203750Y0605771D03*
X0203750Y0615771D03*
X0203750Y0625771D03*
X0203750Y0595771D03*
X0203750Y0585771D03*
X0203750Y0575771D03*
X0203750Y0565771D03*
X0193750Y0565771D03*
X0193750Y0575771D03*
X0193750Y0585771D03*
X0193750Y0595771D03*
X0183750Y0595771D03*
X0183750Y0585771D03*
X0183750Y0575771D03*
X0183750Y0565771D03*
X0173750Y0565771D03*
X0173750Y0575771D03*
X0173750Y0585771D03*
X0173750Y0595771D03*
X0161250Y0555771D03*
X0151250Y0555771D03*
X0135250Y0544271D03*
X0125250Y0544271D03*
X0101250Y0565771D03*
X0091250Y0565771D03*
X0128750Y0501771D03*
X0128750Y0491771D03*
X0138750Y0491771D03*
X0138750Y0501771D03*
X0173750Y0405771D03*
X0173750Y0395771D03*
X0173750Y0385771D03*
X0173750Y0375771D03*
X0183750Y0375771D03*
X0183750Y0385771D03*
X0183750Y0395771D03*
X0183750Y0405771D03*
X0193750Y0405771D03*
X0193750Y0395771D03*
X0193750Y0385771D03*
X0193750Y0375771D03*
X0203750Y0375771D03*
X0203750Y0385771D03*
X0203750Y0395771D03*
X0213750Y0395771D03*
X0223750Y0395771D03*
X0223750Y0405771D03*
X0233750Y0405771D03*
X0243750Y0405771D03*
X0243750Y0395771D03*
X0233750Y0395771D03*
X0233750Y0385771D03*
X0243750Y0385771D03*
X0243750Y0375771D03*
X0233750Y0375771D03*
X0223750Y0375771D03*
X0223750Y0385771D03*
X0213750Y0385771D03*
X0213750Y0375771D03*
X0213750Y0365771D03*
X0223750Y0365771D03*
X0223750Y0355771D03*
X0213750Y0355771D03*
X0213750Y0345771D03*
X0223750Y0345771D03*
X0223750Y0335771D03*
X0213750Y0335771D03*
X0213750Y0325771D03*
X0223750Y0325771D03*
X0223750Y0315771D03*
X0213750Y0315771D03*
X0203750Y0315771D03*
X0203750Y0325771D03*
X0203750Y0335771D03*
X0203750Y0345771D03*
X0203750Y0355771D03*
X0203750Y0365771D03*
X0193750Y0365771D03*
X0183750Y0365771D03*
X0183750Y0355771D03*
X0193750Y0355771D03*
X0193750Y0345771D03*
X0183750Y0345771D03*
X0183750Y0335771D03*
X0193750Y0335771D03*
X0193750Y0325771D03*
X0183750Y0325771D03*
X0183750Y0315771D03*
X0193750Y0315771D03*
X0173750Y0315771D03*
X0173750Y0325771D03*
X0173750Y0335771D03*
X0173750Y0345771D03*
X0173750Y0355771D03*
X0173750Y0365771D03*
X0233750Y0365771D03*
X0243750Y0365771D03*
X0243750Y0355771D03*
X0233750Y0355771D03*
X0233750Y0345771D03*
X0243750Y0345771D03*
X0243750Y0335771D03*
X0233750Y0335771D03*
X0233750Y0325771D03*
X0243750Y0325771D03*
X0243750Y0315771D03*
X0233750Y0315771D03*
X0318750Y0238896D03*
X0328750Y0238896D03*
X0338750Y0238896D03*
X0338750Y0248896D03*
X0338750Y0258896D03*
X0348750Y0258896D03*
X0348750Y0248896D03*
X0348750Y0238896D03*
X0358750Y0238896D03*
X0358750Y0248896D03*
X0358750Y0258896D03*
X0368848Y0258911D03*
X0368848Y0248911D03*
X0368848Y0238911D03*
X0368848Y0228911D03*
X0368848Y0218911D03*
X0368848Y0208911D03*
X0368848Y0198911D03*
X0368848Y0188911D03*
X0368848Y0178911D03*
X0358750Y0178896D03*
X0358750Y0168896D03*
X0368848Y0168911D03*
X0348750Y0168896D03*
X0348750Y0178896D03*
X0338750Y0178896D03*
X0338750Y0168896D03*
X0328750Y0178896D03*
X0318750Y0178896D03*
X0318750Y0198896D03*
X0328750Y0198896D03*
X0338750Y0198896D03*
X0338750Y0208896D03*
X0338750Y0218896D03*
X0338750Y0228896D03*
X0348750Y0228896D03*
X0348750Y0218896D03*
X0348750Y0208896D03*
X0348750Y0198896D03*
X0348750Y0188896D03*
X0338750Y0188896D03*
X0358750Y0188896D03*
X0358750Y0198896D03*
X0358750Y0208896D03*
X0358750Y0218896D03*
X0358750Y0228896D03*
X0328750Y0228896D03*
X0318750Y0228896D03*
X0343750Y0315771D03*
X0343750Y0325771D03*
X0343750Y0335771D03*
X0343750Y0345771D03*
X0343750Y0355771D03*
X0343750Y0365771D03*
X0353750Y0365771D03*
X0353750Y0355771D03*
X0353750Y0345771D03*
X0353750Y0335771D03*
X0353750Y0325771D03*
X0353750Y0315771D03*
X0363750Y0315771D03*
X0363750Y0325771D03*
X0363750Y0335771D03*
X0363750Y0345771D03*
X0363750Y0355771D03*
X0363750Y0365771D03*
X0373750Y0365771D03*
X0373750Y0355771D03*
X0373750Y0345771D03*
X0373750Y0335771D03*
X0373750Y0325771D03*
X0383750Y0325771D03*
X0383750Y0335771D03*
X0383750Y0345771D03*
X0383750Y0355771D03*
X0383750Y0365771D03*
X0393750Y0365771D03*
X0393750Y0355771D03*
X0393750Y0345771D03*
X0393750Y0335771D03*
X0393750Y0325771D03*
X0393750Y0315771D03*
X0403750Y0315771D03*
X0403750Y0325771D03*
X0403750Y0335771D03*
X0403750Y0345771D03*
X0403750Y0355771D03*
X0403750Y0365771D03*
X0413750Y0365771D03*
X0413750Y0355771D03*
X0413750Y0345771D03*
X0413750Y0335771D03*
X0413750Y0325771D03*
X0413750Y0315771D03*
X0426250Y0313271D03*
X0426250Y0303271D03*
X0426250Y0293271D03*
X0426250Y0283271D03*
X0426250Y0273271D03*
X0426250Y0263271D03*
X0426250Y0253271D03*
X0426250Y0243271D03*
X0426250Y0233271D03*
X0426250Y0223271D03*
X0426250Y0213271D03*
X0426250Y0203271D03*
X0426250Y0193271D03*
X0426250Y0183271D03*
X0426250Y0173271D03*
X0426250Y0163271D03*
X0426250Y0153271D03*
X0426250Y0143271D03*
X0426250Y0133271D03*
X0426250Y0123271D03*
X0441250Y0123271D03*
X0441250Y0133271D03*
X0441250Y0143271D03*
X0441250Y0153271D03*
X0451250Y0153271D03*
X0451250Y0143271D03*
X0451250Y0133271D03*
X0451250Y0123271D03*
X0461250Y0123271D03*
X0461250Y0133271D03*
X0461250Y0143271D03*
X0461250Y0153271D03*
X0471250Y0153271D03*
X0471250Y0143271D03*
X0471250Y0133271D03*
X0471250Y0123271D03*
X0481250Y0123271D03*
X0481250Y0133271D03*
X0481250Y0143271D03*
X0481250Y0153271D03*
X0481250Y0163271D03*
X0481250Y0173271D03*
X0481250Y0183271D03*
X0481250Y0193271D03*
X0481250Y0203271D03*
X0481250Y0213271D03*
X0481250Y0223271D03*
X0481250Y0233271D03*
X0481250Y0243271D03*
X0481250Y0253271D03*
X0481250Y0263271D03*
X0481250Y0273271D03*
X0481250Y0283271D03*
X0481250Y0293271D03*
X0481250Y0303271D03*
X0481250Y0313271D03*
X0471250Y0313271D03*
X0461250Y0313271D03*
X0461250Y0303271D03*
X0471250Y0303271D03*
X0471250Y0293271D03*
X0461250Y0293271D03*
X0461250Y0283271D03*
X0471250Y0283271D03*
X0471250Y0273271D03*
X0461250Y0273271D03*
X0451250Y0273271D03*
X0451250Y0283271D03*
X0451250Y0293271D03*
X0451250Y0303271D03*
X0451250Y0313271D03*
X0441250Y0313271D03*
X0441250Y0303271D03*
X0441250Y0293271D03*
X0441250Y0283271D03*
X0441250Y0273271D03*
X0441250Y0263271D03*
X0451250Y0263271D03*
X0451250Y0253271D03*
X0441250Y0253271D03*
X0441250Y0243271D03*
X0451250Y0243271D03*
X0451250Y0233271D03*
X0441250Y0233271D03*
X0441250Y0223271D03*
X0451250Y0223271D03*
X0451250Y0213271D03*
X0441250Y0213271D03*
X0441250Y0203271D03*
X0451250Y0203271D03*
X0451250Y0193271D03*
X0441250Y0193271D03*
X0441250Y0183271D03*
X0451250Y0183271D03*
X0451250Y0173271D03*
X0441250Y0173271D03*
X0441250Y0163271D03*
X0451250Y0163271D03*
X0461250Y0163271D03*
X0461250Y0173271D03*
X0461250Y0183271D03*
X0461250Y0193271D03*
X0461250Y0203271D03*
X0471250Y0203271D03*
X0471250Y0193271D03*
X0471250Y0183271D03*
X0471250Y0173271D03*
X0471250Y0163271D03*
X0501250Y0163271D03*
X0501250Y0173271D03*
X0501250Y0183271D03*
X0501250Y0193271D03*
X0501250Y0203271D03*
X0511250Y0203271D03*
X0511250Y0193271D03*
X0511250Y0183271D03*
X0511250Y0173271D03*
X0511250Y0163271D03*
X0521250Y0163271D03*
X0521250Y0173271D03*
X0521250Y0183271D03*
X0521250Y0193271D03*
X0521250Y0203271D03*
X0521250Y0213271D03*
X0521250Y0223271D03*
X0521250Y0233271D03*
X0521250Y0243271D03*
X0521250Y0253271D03*
X0521250Y0263271D03*
X0521250Y0273271D03*
X0521250Y0283271D03*
X0521250Y0293271D03*
X0521250Y0303271D03*
X0521250Y0313271D03*
X0511250Y0313271D03*
X0501250Y0313271D03*
X0501250Y0303271D03*
X0511250Y0303271D03*
X0511250Y0293271D03*
X0501250Y0293271D03*
X0501250Y0283271D03*
X0511250Y0283271D03*
X0511250Y0273271D03*
X0501250Y0273271D03*
X0501250Y0263271D03*
X0511250Y0263271D03*
X0511250Y0253271D03*
X0501250Y0253271D03*
X0501250Y0243271D03*
X0511250Y0243271D03*
X0511250Y0233271D03*
X0501250Y0233271D03*
X0501250Y0223271D03*
X0511250Y0223271D03*
X0511250Y0213271D03*
X0501250Y0213271D03*
X0471250Y0213271D03*
X0471250Y0223271D03*
X0471250Y0233271D03*
X0471250Y0243271D03*
X0471250Y0253271D03*
X0471250Y0263271D03*
X0461250Y0263271D03*
X0461250Y0253271D03*
X0461250Y0243271D03*
X0461250Y0233271D03*
X0461250Y0223271D03*
X0461250Y0213271D03*
X0501250Y0153271D03*
X0511250Y0153271D03*
X0511250Y0143271D03*
X0501250Y0143271D03*
X0501250Y0133271D03*
X0511250Y0133271D03*
X0511250Y0123271D03*
X0501250Y0123271D03*
X0521250Y0123271D03*
X0521250Y0133271D03*
X0521250Y0143271D03*
X0521250Y0153271D03*
X0531250Y0153271D03*
X0541250Y0153271D03*
X0541250Y0143271D03*
X0531250Y0143271D03*
X0531250Y0133271D03*
X0541250Y0133271D03*
X0541250Y0123271D03*
X0531250Y0123271D03*
X0556250Y0123271D03*
X0556250Y0133271D03*
X0556250Y0143271D03*
X0556250Y0153271D03*
X0556250Y0163271D03*
X0556250Y0173271D03*
X0556250Y0183271D03*
X0556250Y0193271D03*
X0556250Y0203271D03*
X0556250Y0213271D03*
X0556250Y0223271D03*
X0556250Y0233271D03*
X0556250Y0243271D03*
X0556250Y0253271D03*
X0556250Y0263271D03*
X0556250Y0273271D03*
X0556250Y0283271D03*
X0556250Y0293271D03*
X0556250Y0303271D03*
X0556250Y0313271D03*
X0541250Y0313271D03*
X0531250Y0313271D03*
X0531250Y0303271D03*
X0541250Y0303271D03*
X0541250Y0293271D03*
X0531250Y0293271D03*
X0531250Y0283271D03*
X0541250Y0283271D03*
X0541250Y0273271D03*
X0531250Y0273271D03*
X0531250Y0263271D03*
X0541250Y0263271D03*
X0541250Y0253271D03*
X0531250Y0253271D03*
X0531250Y0243271D03*
X0541250Y0243271D03*
X0541250Y0233271D03*
X0531250Y0233271D03*
X0531250Y0223271D03*
X0541250Y0223271D03*
X0541250Y0213271D03*
X0531250Y0213271D03*
X0531250Y0203271D03*
X0541250Y0203271D03*
X0541250Y0193271D03*
X0531250Y0193271D03*
X0531250Y0183271D03*
X0541250Y0183271D03*
X0541250Y0173271D03*
X0531250Y0173271D03*
X0531250Y0163271D03*
X0541250Y0163271D03*
X0571250Y0168271D03*
X0571250Y0178271D03*
X0581250Y0178271D03*
X0581250Y0168271D03*
X0581250Y0158271D03*
X0571250Y0158271D03*
X0571250Y0148271D03*
X0581250Y0148271D03*
X0591250Y0148271D03*
X0591250Y0158271D03*
X0591250Y0168271D03*
X0591250Y0178271D03*
X0601250Y0178271D03*
X0601250Y0168271D03*
X0601250Y0158271D03*
X0601250Y0148271D03*
X0611250Y0148271D03*
X0611250Y0158271D03*
X0611250Y0168271D03*
X0611250Y0178271D03*
X0621250Y0178271D03*
X0621250Y0168271D03*
X0621250Y0158271D03*
X0621250Y0148271D03*
X0621250Y0188271D03*
X0621250Y0198271D03*
X0621250Y0208271D03*
X0621250Y0218271D03*
X0621250Y0228271D03*
X0621250Y0238271D03*
X0611250Y0228271D03*
X0611250Y0218271D03*
X0611250Y0208271D03*
X0611250Y0198271D03*
X0611250Y0188271D03*
X0601250Y0188271D03*
X0601250Y0198271D03*
X0601250Y0208271D03*
X0601250Y0218271D03*
X0601250Y0228271D03*
X0591250Y0228271D03*
X0591250Y0218271D03*
X0591250Y0208271D03*
X0591250Y0198271D03*
X0591250Y0188271D03*
X0581250Y0188271D03*
X0581250Y0198271D03*
X0581250Y0208271D03*
X0581250Y0218271D03*
X0581250Y0228271D03*
X0581250Y0238271D03*
X0571250Y0228271D03*
X0571250Y0218271D03*
X0571250Y0208271D03*
X0571250Y0198271D03*
X0571250Y0188271D03*
X0580000Y0264521D03*
X0580000Y0274521D03*
X0590000Y0274521D03*
X0600000Y0274521D03*
X0600000Y0264521D03*
X0590000Y0264521D03*
X0610000Y0264521D03*
X0610000Y0274521D03*
X0606250Y0307021D03*
X0586250Y0307021D03*
X0620000Y0344521D03*
X0620000Y0354521D03*
X0620000Y0364521D03*
X0577500Y0405771D03*
X0577500Y0415771D03*
X0577500Y0425771D03*
X0577500Y0435771D03*
X0577500Y0445771D03*
X0577500Y0455771D03*
X0567500Y0455771D03*
X0567500Y0445771D03*
X0567500Y0435771D03*
X0567500Y0425771D03*
X0567500Y0415771D03*
X0567500Y0405771D03*
X0567500Y0395771D03*
X0568750Y0471271D03*
X0558750Y0471271D03*
X0548750Y0471271D03*
X0546250Y0490271D03*
X0546250Y0500271D03*
X0546250Y0510271D03*
X0556250Y0510271D03*
X0556250Y0500271D03*
X0556250Y0490271D03*
X0536250Y0490271D03*
X0536250Y0500271D03*
X0536250Y0510271D03*
X0526250Y0510271D03*
X0526250Y0500271D03*
X0526250Y0490271D03*
X0516250Y0490271D03*
X0516250Y0500271D03*
X0516250Y0510271D03*
X0506250Y0510271D03*
X0506250Y0500271D03*
X0506250Y0490271D03*
X0496250Y0490271D03*
X0496250Y0500271D03*
X0496250Y0510271D03*
X0486250Y0510271D03*
X0486250Y0500271D03*
X0486250Y0490271D03*
X0483750Y0460771D03*
X0473750Y0460771D03*
X0463750Y0460771D03*
X0453750Y0460771D03*
X0443750Y0460771D03*
X0433750Y0460771D03*
X0433750Y0450771D03*
X0443750Y0450771D03*
X0453750Y0450771D03*
X0463750Y0450771D03*
X0473750Y0450771D03*
X0483750Y0450771D03*
X0493750Y0450771D03*
X0503750Y0450771D03*
X0493750Y0460771D03*
X0506250Y0520271D03*
X0506250Y0530271D03*
X0516250Y0530271D03*
X0516250Y0540271D03*
X0526250Y0530271D03*
X0536250Y0530271D03*
X0536250Y0540271D03*
X0548750Y0551271D03*
X0558750Y0551271D03*
X0568750Y0551271D03*
X0578750Y0551271D03*
X0588750Y0551271D03*
X0536250Y0520271D03*
X0526250Y0520271D03*
X0516250Y0520271D03*
X0578750Y0471271D03*
X0588750Y0471271D03*
X0598750Y0471271D03*
X0510000Y0339521D03*
X0490000Y0339521D03*
X0441250Y0335771D03*
X0441250Y0345771D03*
X0441250Y0355771D03*
X0441250Y0365771D03*
X0431250Y0365771D03*
X0431250Y0355771D03*
X0431250Y0345771D03*
X0431250Y0335771D03*
X0413750Y0375771D03*
X0413750Y0385771D03*
X0413750Y0395771D03*
X0413750Y0405771D03*
X0403750Y0405771D03*
X0403750Y0395771D03*
X0403750Y0385771D03*
X0403750Y0375771D03*
X0393750Y0375771D03*
X0393750Y0385771D03*
X0393750Y0395771D03*
X0393750Y0405771D03*
X0383750Y0405771D03*
X0383750Y0395771D03*
X0383750Y0385771D03*
X0383750Y0375771D03*
X0373750Y0375771D03*
X0373750Y0385771D03*
X0373750Y0395771D03*
X0373750Y0405771D03*
X0363750Y0405771D03*
X0363750Y0395771D03*
X0363750Y0385771D03*
X0363750Y0375771D03*
X0353750Y0375771D03*
X0353750Y0385771D03*
X0353750Y0395771D03*
X0353750Y0405771D03*
X0343750Y0405771D03*
X0343750Y0395771D03*
X0343750Y0385771D03*
X0343750Y0375771D03*
X0419250Y0425771D03*
X0419250Y0435771D03*
X0419250Y0445771D03*
X0419250Y0455771D03*
X0413750Y0565771D03*
X0413750Y0575771D03*
X0413750Y0585771D03*
X0413750Y0595771D03*
X0403750Y0595771D03*
X0403750Y0585771D03*
X0403750Y0575771D03*
X0403750Y0565771D03*
X0393750Y0565771D03*
X0393750Y0575771D03*
X0393750Y0585771D03*
X0393750Y0595771D03*
X0383750Y0595771D03*
X0383750Y0585771D03*
X0383750Y0575771D03*
X0373750Y0575771D03*
X0373750Y0585771D03*
X0373750Y0595771D03*
X0363750Y0595771D03*
X0363750Y0585771D03*
X0363750Y0575771D03*
X0363750Y0565771D03*
X0353750Y0565771D03*
X0353750Y0575771D03*
X0353750Y0585771D03*
X0353750Y0595771D03*
X0343750Y0595771D03*
X0343750Y0585771D03*
X0343750Y0575771D03*
X0343750Y0565771D03*
X0343750Y0605771D03*
X0343750Y0615771D03*
X0343750Y0625771D03*
X0343750Y0635771D03*
X0343750Y0645771D03*
X0343750Y0655771D03*
X0353750Y0655771D03*
X0353750Y0645771D03*
X0353750Y0635771D03*
X0353750Y0625771D03*
X0353750Y0615771D03*
X0353750Y0605771D03*
X0363750Y0605771D03*
X0363750Y0615771D03*
X0363750Y0625771D03*
X0363750Y0635771D03*
X0363750Y0645771D03*
X0363750Y0655771D03*
X0373750Y0655771D03*
X0373750Y0645771D03*
X0373750Y0635771D03*
X0373750Y0625771D03*
X0373750Y0615771D03*
X0373750Y0605771D03*
X0383750Y0605771D03*
X0383750Y0615771D03*
X0383750Y0625771D03*
X0383750Y0635771D03*
X0383750Y0645771D03*
X0383750Y0655771D03*
X0393750Y0655771D03*
X0393750Y0645771D03*
X0393750Y0635771D03*
X0393750Y0625771D03*
X0393750Y0615771D03*
X0393750Y0605771D03*
X0403750Y0605771D03*
X0403750Y0615771D03*
X0403750Y0625771D03*
X0403750Y0635771D03*
X0403750Y0645771D03*
X0403750Y0655771D03*
X0413750Y0655771D03*
X0413750Y0645771D03*
X0413750Y0635771D03*
X0413750Y0625771D03*
X0413750Y0615771D03*
X0413750Y0605771D03*
X0477250Y0660771D03*
X0477250Y0670771D03*
X0477250Y0680771D03*
X0477250Y0690771D03*
X0487250Y0690771D03*
X0487250Y0680771D03*
X0487250Y0670771D03*
X0487250Y0660771D03*
X0564250Y0712771D03*
X0574250Y0712771D03*
X0574250Y0732771D03*
X0564250Y0732771D03*
X0564250Y0752771D03*
X0574250Y0752771D03*
X0574250Y0772771D03*
X0564250Y0772771D03*
X0604250Y0772771D03*
X0614250Y0772771D03*
X0614250Y0752771D03*
X0604250Y0752771D03*
X0604250Y0732771D03*
X0614250Y0732771D03*
X0614250Y0712771D03*
X0604250Y0712771D03*
X0617250Y0668771D03*
X0617250Y0658771D03*
X0617250Y0648771D03*
X0617250Y0638771D03*
X0286250Y0765771D03*
X0286250Y0775771D03*
X0276250Y0775771D03*
X0266250Y0775771D03*
X0266250Y0765771D03*
X0276250Y0765771D03*
X0162250Y0770271D03*
X0162250Y0760271D03*
X0152250Y0760271D03*
X0152250Y0770271D03*
X0142250Y0770271D03*
X0132250Y0770271D03*
X0142250Y0760271D03*
X0091730Y0749121D03*
X0081730Y0749121D03*
X0071730Y0749121D03*
X0072230Y0731121D03*
X0082230Y0731121D03*
X0092230Y0731121D03*
X0047230Y0731121D03*
X0037230Y0731121D03*
X0027230Y0731121D03*
X0027730Y0749121D03*
X0037730Y0749121D03*
X0047730Y0749121D03*
X0133125Y0643271D03*
X0213750Y0595771D03*
X0223750Y0595771D03*
X0223750Y0585771D03*
X0213750Y0585771D03*
X0213750Y0575771D03*
X0223750Y0575771D03*
X0223750Y0565771D03*
X0213750Y0565771D03*
X0233750Y0565771D03*
X0233750Y0575771D03*
X0233750Y0585771D03*
X0233750Y0595771D03*
X0243750Y0595771D03*
X0243750Y0585771D03*
X0243750Y0575771D03*
X0243750Y0565771D03*
X0061250Y0365771D03*
X0061250Y0355771D03*
X0061250Y0345771D03*
X0061250Y0335771D03*
X0061250Y0325771D03*
X0061250Y0315771D03*
X0051250Y0315771D03*
X0051250Y0325771D03*
X0051250Y0335771D03*
X0051250Y0345771D03*
X0051250Y0355771D03*
X0051250Y0365771D03*
X0041250Y0365771D03*
X0041250Y0355771D03*
X0041250Y0345771D03*
X0041250Y0335771D03*
X0041250Y0325771D03*
X0041250Y0315771D03*
X0041250Y0305771D03*
X0051250Y0305771D03*
X0051250Y0295771D03*
X0041250Y0295771D03*
X0041250Y0285771D03*
X0051250Y0285771D03*
X0051250Y0275771D03*
X0041250Y0275771D03*
X0041250Y0265771D03*
X0051250Y0265771D03*
X0051250Y0255771D03*
X0041250Y0255771D03*
X0061250Y0255771D03*
X0061250Y0265771D03*
X0061250Y0275771D03*
X0061250Y0285771D03*
X0061250Y0295771D03*
X0061250Y0305771D03*
X0061250Y0245771D03*
X0061250Y0235771D03*
X0061250Y0225771D03*
X0061250Y0215771D03*
X0084375Y0187646D03*
X0084375Y0177646D03*
X0084375Y0167646D03*
X0084375Y0157646D03*
X0123105Y0128871D03*
X0133105Y0128871D03*
X0133105Y0118871D03*
X0123105Y0118871D03*
X0143105Y0118871D03*
X0179355Y0118871D03*
X0179355Y0128871D03*
X0189355Y0128871D03*
X0189355Y0118871D03*
X0199355Y0118871D03*
X0248125Y0123896D03*
X0248125Y0133896D03*
X0258125Y0133896D03*
X0258125Y0123896D03*
X0268125Y0123896D03*
X0268125Y0133896D03*
X0278125Y0133896D03*
X0278125Y0123896D03*
X0333125Y0068271D03*
X0343125Y0068271D03*
X0343125Y0058271D03*
X0333125Y0058271D03*
X0333125Y0048271D03*
X0312500Y0020771D03*
X0312500Y0010771D03*
X0274375Y0013896D03*
X0274375Y0023896D03*
X0274375Y0033896D03*
X0264375Y0023896D03*
X0264375Y0013896D03*
X0340625Y0123896D03*
X0340625Y0133896D03*
X0350625Y0133896D03*
X0360625Y0133896D03*
X0360625Y0123896D03*
X0350625Y0123896D03*
X0370625Y0123896D03*
X0370625Y0133896D03*
X0400000Y0033271D03*
X0400000Y0023271D03*
X0390000Y0023271D03*
X0390000Y0013271D03*
X0400000Y0013271D03*
X0438750Y0010771D03*
X0438750Y0020771D03*
X0459375Y0048271D03*
X0459375Y0058271D03*
X0459375Y0068271D03*
X0469375Y0068271D03*
X0469375Y0058271D03*
X0031250Y0205771D03*
X0026850Y0418291D03*
D11*
X0036850Y0418291D03*
X0128750Y0481771D03*
X0138750Y0481771D03*
X0115250Y0544271D03*
X0037250Y0544271D03*
X0203750Y0655771D03*
X0213750Y0655771D03*
X0132250Y0760271D03*
X0373750Y0565771D03*
X0383750Y0565771D03*
X0419250Y0415771D03*
X0383750Y0315771D03*
X0373750Y0315771D03*
X0503750Y0460771D03*
X0506250Y0540271D03*
X0526250Y0540271D03*
X0598750Y0551271D03*
X0617250Y0628771D03*
X0577500Y0395771D03*
X0571250Y0238271D03*
X0591250Y0238271D03*
X0601250Y0238271D03*
X0611250Y0238271D03*
X0213750Y0405771D03*
X0203750Y0405771D03*
X0061250Y0205771D03*
X0041250Y0205771D03*
D12*
X0054320Y0426106D03*
X0066131Y0443822D03*
X0042040Y0443822D03*
D13*
X0060600Y0715791D03*
X0060600Y0755791D03*
X0107100Y0756291D03*
X0107100Y0716291D03*
X0202750Y0049521D03*
X0212750Y0049521D03*
X0222750Y0049521D03*
X0226230Y0020121D03*
X0216230Y0020121D03*
X0236230Y0020121D03*
D14*
X0091730Y0764821D02*
X0091730Y0771421D01*
X0081730Y0771421D02*
X0081730Y0764821D01*
X0071730Y0764821D02*
X0071730Y0771421D01*
X0047230Y0771421D02*
X0047230Y0764821D01*
X0037230Y0764821D02*
X0037230Y0771421D01*
X0027230Y0771421D02*
X0027230Y0764821D01*
D15*
X0143105Y0128871D03*
X0199355Y0128871D03*
X0264375Y0033896D03*
X0343125Y0048271D03*
X0390000Y0033271D03*
X0469375Y0048271D03*
D16*
X0168105Y0218246D03*
X0103105Y0218246D03*
D17*
X0103105Y0208246D03*
X0168105Y0208246D03*
D18*
X0057730Y0702121D03*
X0047730Y0702121D03*
D19*
X0110730Y0695871D03*
X0130730Y0714871D03*
X0150730Y0695871D03*
D20*
X0080750Y0024271D03*
X0080750Y0087271D03*
X0136750Y0087271D03*
X0136750Y0024271D03*
X0271375Y0329021D03*
X0320125Y0472771D03*
X0323750Y0613271D03*
X0323750Y0768271D03*
X0510750Y0087271D03*
X0510750Y0024271D03*
X0566750Y0024271D03*
X0566750Y0087271D03*
D21*
X0210920Y0156396D03*
X0185330Y0156396D03*
X0145920Y0156396D03*
X0120330Y0156396D03*
D22*
X0496750Y0753771D03*
D23*
X0516750Y0753771D03*
D24*
X0223250Y0490271D03*
D25*
X0271375Y0490271D03*
D26*
X0296875Y0058271D03*
X0423125Y0058271D03*
D27*
X0388750Y0057975D03*
X0388750Y0083566D03*
X0262500Y0083566D03*
X0262500Y0057975D03*
D28*
X0161250Y0574521D03*
X0161250Y0622021D03*
X0137500Y0630146D03*
X0113750Y0622021D03*
X0113750Y0574521D03*
D29*
X0122250Y0398771D03*
X0122250Y0344271D03*
X0122250Y0289771D03*
M02*
