%
M48
M72
T01C0.02000
T02C0.03200
T03C0.03600
T04C0.04000
T05C0.04400
T06C0.05000
T07C0.05200
T08C0.05500
T09C0.07500
T10C0.08000
T11C0.12500
T12C0.15000
%
T01
X128750Y167671
X117150Y178471
X117550Y184071
X111150Y178071
X139550Y164071
X145550Y175671
X148350Y184071
X155550Y185671
X167150Y192471
X175550Y153671
X210750Y164071
X195950Y201271
X159150Y258871
X144750Y258871
X164750Y351671
X177950Y399671
X177950Y410071
X169550Y423271
X164750Y442871
X214350Y483271
X234750Y492471
X214350Y526071
X192750Y530071
X135150Y533671
X107950Y560471
X84750Y483271
X51150Y467671
X81950Y680871
X85550Y686071
X198750Y740871
X219150Y715271
X227150Y690871
X241950Y701271
X249550Y704471
X241950Y670071
X275550Y660071
X290350Y686071
X306350Y686471
X325150Y683271
X328350Y690871
X326750Y695271
X334750Y707671
X348750Y728871
X358750Y727271
X364750Y727271
X371550Y727271
X375550Y732071
X385550Y720071
X397150Y727271
X404750Y724071
X387550Y698871
X369550Y700071
X363550Y695271
X359150Y706071
X361150Y719271
X368350Y745271
X363550Y756071
X377950Y759271
X356350Y769271
X346350Y756471
X346750Y752071
X344750Y745271
X365550Y682071
X343550Y675271
X340350Y664071
X328350Y674071
X320350Y632071
X298350Y630871
X295150Y627671
X312750Y590471
X337550Y610871
X369950Y631271
X377550Y620071
X398750Y620071
X419550Y625671
X429950Y636071
X433950Y620071
X447150Y655671
X469950Y632871
X484350Y655671
X499150Y651671
X500350Y659671
X517950Y651671
X512350Y634871
X492350Y630071
X489150Y622471
X527950Y595671
X537950Y596071
X534750Y604871
X536750Y578071
X562350Y592071
X577150Y583671
X603150Y593271
X577550Y630871
X566750Y651271
X562750Y663271
X550350Y656071
X534750Y639271
X562750Y635671
X577550Y666071
X593150Y680871
X596750Y657671
X579950Y542471
X598750Y522071
X586350Y505271
X582750Y452871
X559550Y449271
X531150Y416471
X525950Y407271
X529150Y404071
X522750Y404071
X508350Y402471
X505550Y406071
X508750Y409271
X499150Y413671
X488750Y419671
X476350Y405671
X472350Y400871
X475550Y386471
X476350Y376871
X476350Y366871
X487150Y369671
X492750Y373271
X505550Y376871
X521150Y372071
X524350Y358071
X542750Y374471
X555150Y377271
X562750Y389671
X552750Y404071
X543550Y404071
X543550Y408471
X539150Y404071
X525150Y385671
X518750Y425671
X521550Y430471
X488750Y398471
X491950Y387271
X489950Y353271
X458750Y390071
X443550Y416071
X437150Y419271
X463950Y426071
X483550Y444871
X458750Y518071
X473550Y521271
X425550Y485671
X425950Y463671
X394750Y445671
X387550Y443271
X376350Y431671
X369950Y442471
X350350Y400871
X336350Y344071
X403550Y247671
X413550Y267671
X416750Y300071
X379950Y124471
X380625Y82021
X378750Y58271
X396350Y49271
X405950Y33271
X413950Y37271
X424350Y37271
X443150Y36471
X446750Y82071
X419550Y111271
X299150Y30071
X293150Y26871
X279950Y45271
X276750Y48471
X248750Y57646
X252500Y83271
X235950Y119671
X219150Y379271
X237950Y437671
X234750Y445671
X310350Y502071
X313550Y494471
X332750Y521671
X337150Y521671
X343950Y529271
X345950Y512871
X355150Y505271
X363550Y508071
X374750Y517271
X378350Y520471
X377150Y526071
X387950Y529271
X399950Y524871
X396750Y519271
X387950Y508071
X384350Y505271
X385150Y493671
X389150Y480871
X371950Y480871
X345550Y492071
X325950Y536471
X313550Y535271
X310350Y543271
X295550Y541671
X289950Y547671
X248750Y628871
X282350Y732871
X397550Y660071
X407550Y684871
X407550Y689271
X428750Y768071
X474350Y722471
X416350Y534471
T02
X107100Y716291
X107100Y756291
X60600Y755791
X60600Y715791
X57730Y702121
X47730Y702121
X202750Y49521
X212750Y49521
X222750Y49521
X226230Y20121
X216230Y20121
X236230Y20121
T03
X168105Y208246
X168105Y218246
X103105Y218246
X103105Y208246
T04
X84375Y187646
X74375Y187646
X64375Y187646
X54375Y187646
X54375Y177646
X64375Y177646
X64375Y167646
X54375Y167646
X54375Y157646
X64375Y157646
X74375Y157646
X74375Y167646
X74375Y177646
X84375Y177646
X84375Y167646
X84375Y157646
X123105Y128871
X133105Y128871
X143105Y128871
X143105Y118871
X133105Y118871
X123105Y118871
X179355Y118871
X179355Y128871
X189355Y128871
X199355Y128871
X199355Y118871
X189355Y118871
X248125Y123896
X248125Y133896
X258125Y133896
X258125Y123896
X268125Y123896
X268125Y133896
X278125Y133896
X278125Y123896
X318750Y178896
X328750Y178896
X338750Y178896
X348750Y178896
X348750Y168896
X338750Y168896
X338750Y188896
X338750Y198896
X338750Y208896
X338750Y218896
X338750Y228896
X348750Y228896
X348750Y218896
X348750Y208896
X348750Y198896
X348750Y188896
X358750Y188896
X358750Y198896
X358750Y208896
X358750Y218896
X358750Y228896
X368848Y228911
X368848Y218911
X368848Y208911
X368848Y198911
X368848Y188911
X368848Y178911
X358750Y178896
X358750Y168896
X368848Y168911
X370625Y133896
X370625Y123896
X360625Y123896
X360625Y133896
X350625Y133896
X350625Y123896
X340625Y123896
X340625Y133896
X343125Y68271
X333125Y68271
X333125Y58271
X343125Y58271
X343125Y48271
X333125Y48271
X312500Y20771
X312500Y10771
X274375Y13896
X274375Y23896
X274375Y33896
X264375Y33896
X264375Y23896
X264375Y13896
X390000Y13271
X390000Y23271
X390000Y33271
X400000Y33271
X400000Y23271
X400000Y13271
X438750Y10771
X438750Y20771
X459375Y48271
X459375Y58271
X459375Y68271
X469375Y68271
X469375Y58271
X469375Y48271
X471250Y123271
X471250Y133271
X471250Y143271
X471250Y153271
X461250Y153271
X461250Y143271
X461250Y133271
X461250Y123271
X451250Y123271
X451250Y133271
X451250Y143271
X451250Y153271
X441250Y153271
X441250Y143271
X441250Y133271
X441250Y123271
X426250Y123271
X426250Y133271
X426250Y143271
X426250Y153271
X426250Y163271
X426250Y173271
X426250Y183271
X426250Y193271
X426250Y203271
X426250Y213271
X426250Y223271
X426250Y233271
X426250Y243271
X426250Y253271
X426250Y263271
X426250Y273271
X426250Y283271
X426250Y293271
X426250Y303271
X426250Y313271
X413750Y315771
X413750Y325771
X413750Y335771
X413750Y345771
X413750Y355771
X413750Y365771
X403750Y365771
X403750Y355771
X403750Y345771
X403750Y335771
X403750Y325771
X403750Y315771
X393750Y315771
X393750Y325771
X393750Y335771
X393750Y345771
X393750Y355771
X393750Y365771
X383750Y365771
X383750Y355771
X383750Y345771
X383750Y335771
X383750Y325771
X383750Y315771
X373750Y315771
X373750Y325771
X373750Y335771
X373750Y345771
X373750Y355771
X373750Y365771
X363750Y365771
X363750Y355771
X363750Y345771
X363750Y335771
X363750Y325771
X363750Y315771
X353750Y315771
X353750Y325771
X353750Y335771
X353750Y345771
X353750Y355771
X353750Y365771
X343750Y365771
X343750Y355771
X343750Y345771
X343750Y335771
X343750Y325771
X343750Y315771
X338750Y258896
X348750Y258896
X348750Y248896
X338750Y248896
X338750Y238896
X348750Y238896
X358750Y238896
X358750Y248896
X358750Y258896
X368848Y258911
X368848Y248911
X368848Y238911
X328750Y238896
X318750Y238896
X318750Y228896
X328750Y228896
X328750Y198896
X318750Y198896
X243750Y315771
X243750Y325771
X243750Y335771
X243750Y345771
X243750Y355771
X243750Y365771
X233750Y365771
X233750Y355771
X233750Y345771
X233750Y335771
X233750Y325771
X233750Y315771
X223750Y315771
X223750Y325771
X223750Y335771
X223750Y345771
X223750Y355771
X223750Y365771
X213750Y365771
X213750Y355771
X213750Y345771
X213750Y335771
X213750Y325771
X213750Y315771
X203750Y315771
X203750Y325771
X203750Y335771
X203750Y345771
X203750Y355771
X203750Y365771
X203750Y375771
X203750Y385771
X203750Y395771
X203750Y405771
X193750Y405771
X183750Y405771
X183750Y395771
X193750Y395771
X193750Y385771
X183750Y385771
X183750Y375771
X193750Y375771
X193750Y365771
X183750Y365771
X183750Y355771
X193750Y355771
X193750Y345771
X183750Y345771
X183750Y335771
X193750Y335771
X193750Y325771
X183750Y325771
X183750Y315771
X193750Y315771
X173750Y315771
X173750Y325771
X173750Y335771
X173750Y345771
X173750Y355771
X173750Y365771
X173750Y375771
X173750Y385771
X173750Y395771
X173750Y405771
X213750Y405771
X223750Y405771
X223750Y395771
X213750Y395771
X213750Y385771
X223750Y385771
X223750Y375771
X213750Y375771
X233750Y375771
X233750Y385771
X233750Y395771
X233750Y405771
X243750Y405771
X243750Y395771
X243750Y385771
X243750Y375771
X343750Y375771
X343750Y385771
X343750Y395771
X343750Y405771
X353750Y405771
X353750Y395771
X353750Y385771
X353750Y375771
X363750Y375771
X363750Y385771
X363750Y395771
X363750Y405771
X373750Y405771
X373750Y395771
X373750Y385771
X373750Y375771
X383750Y375771
X383750Y385771
X383750Y395771
X383750Y405771
X393750Y405771
X393750Y395771
X393750Y385771
X393750Y375771
X403750Y375771
X403750Y385771
X403750Y395771
X403750Y405771
X413750Y405771
X413750Y395771
X413750Y385771
X413750Y375771
X431250Y365771
X431250Y355771
X431250Y345771
X431250Y335771
X441250Y335771
X441250Y345771
X441250Y355771
X441250Y365771
X441250Y313271
X451250Y313271
X451250Y303271
X441250Y303271
X441250Y293271
X451250Y293271
X451250Y283271
X441250Y283271
X441250Y273271
X451250Y273271
X461250Y273271
X461250Y283271
X461250Y293271
X461250Y303271
X461250Y313271
X471250Y313271
X471250Y303271
X471250Y293271
X471250Y283271
X471250Y273271
X481250Y273271
X481250Y283271
X481250Y293271
X481250Y303271
X481250Y313271
X501250Y313271
X511250Y313271
X511250Y303271
X501250Y303271
X501250Y293271
X511250Y293271
X511250Y283271
X501250Y283271
X501250Y273271
X511250Y273271
X521250Y273271
X521250Y283271
X521250Y293271
X521250Y303271
X521250Y313271
X531250Y313271
X541250Y313271
X541250Y303271
X531250Y303271
X531250Y293271
X541250Y293271
X541250Y283271
X531250Y283271
X531250Y273271
X541250Y273271
X541250Y263271
X531250Y263271
X531250Y253271
X541250Y253271
X541250Y243271
X531250Y243271
X531250Y233271
X541250Y233271
X541250Y223271
X531250Y223271
X531250Y213271
X541250Y213271
X541250Y203271
X531250Y203271
X531250Y193271
X541250Y193271
X541250Y183271
X531250Y183271
X531250Y173271
X541250Y173271
X541250Y163271
X531250Y163271
X521250Y163271
X521250Y173271
X521250Y183271
X521250Y193271
X521250Y203271
X521250Y213271
X521250Y223271
X521250Y233271
X521250Y243271
X521250Y253271
X521250Y263271
X511250Y263271
X501250Y263271
X501250Y253271
X511250Y253271
X511250Y243271
X501250Y243271
X501250Y233271
X511250Y233271
X511250Y223271
X501250Y223271
X501250Y213271
X511250Y213271
X511250Y203271
X501250Y203271
X501250Y193271
X511250Y193271
X511250Y183271
X501250Y183271
X501250Y173271
X511250Y173271
X511250Y163271
X501250Y163271
X501250Y153271
X511250Y153271
X511250Y143271
X501250Y143271
X501250Y133271
X511250Y133271
X511250Y123271
X501250Y123271
X481250Y123271
X481250Y133271
X481250Y143271
X481250Y153271
X481250Y163271
X481250Y173271
X481250Y183271
X481250Y193271
X481250Y203271
X481250Y213271
X481250Y223271
X481250Y233271
X481250Y243271
X481250Y253271
X481250Y263271
X471250Y263271
X461250Y263271
X461250Y253271
X471250Y253271
X471250Y243271
X461250Y243271
X461250Y233271
X471250Y233271
X471250Y223271
X461250Y223271
X461250Y213271
X471250Y213271
X471250Y203271
X461250Y203271
X461250Y193271
X471250Y193271
X471250Y183271
X461250Y183271
X461250Y173271
X471250Y173271
X471250Y163271
X461250Y163271
X451250Y163271
X451250Y173271
X451250Y183271
X451250Y193271
X451250Y203271
X441250Y203271
X441250Y193271
X441250Y183271
X441250Y173271
X441250Y163271
X441250Y213271
X441250Y223271
X441250Y233271
X441250Y243271
X441250Y253271
X441250Y263271
X451250Y263271
X451250Y253271
X451250Y243271
X451250Y233271
X451250Y223271
X451250Y213271
X521250Y153271
X521250Y143271
X521250Y133271
X521250Y123271
X531250Y123271
X531250Y133271
X531250Y143271
X531250Y153271
X541250Y153271
X541250Y143271
X541250Y133271
X541250Y123271
X556250Y123271
X556250Y133271
X556250Y143271
X556250Y153271
X556250Y163271
X556250Y173271
X556250Y183271
X556250Y193271
X556250Y203271
X556250Y213271
X556250Y223271
X556250Y233271
X556250Y243271
X556250Y253271
X556250Y263271
X556250Y273271
X556250Y283271
X556250Y293271
X556250Y303271
X556250Y313271
X580000Y274521
X580000Y264521
X590000Y264521
X590000Y274521
X600000Y274521
X600000Y264521
X610000Y264521
X610000Y274521
X606250Y307021
X586250Y307021
X620000Y344521
X620000Y354521
X620000Y364521
X577500Y395771
X577500Y405771
X577500Y415771
X577500Y425771
X577500Y435771
X577500Y445771
X577500Y455771
X567500Y455771
X567500Y445771
X567500Y435771
X567500Y425771
X567500Y415771
X567500Y405771
X567500Y395771
X568750Y471271
X558750Y471271
X548750Y471271
X546250Y490271
X546250Y500271
X546250Y510271
X556250Y510271
X556250Y500271
X556250Y490271
X536250Y490271
X536250Y500271
X536250Y510271
X526250Y510271
X526250Y500271
X526250Y490271
X516250Y490271
X516250Y500271
X516250Y510271
X506250Y510271
X506250Y500271
X506250Y490271
X496250Y490271
X496250Y500271
X496250Y510271
X486250Y510271
X486250Y500271
X486250Y490271
X483750Y460771
X473750Y460771
X463750Y460771
X453750Y460771
X443750Y460771
X433750Y460771
X433750Y450771
X443750Y450771
X453750Y450771
X463750Y450771
X473750Y450771
X483750Y450771
X493750Y450771
X503750Y450771
X503750Y460771
X493750Y460771
X506250Y520271
X506250Y530271
X506250Y540271
X516250Y540271
X516250Y530271
X516250Y520271
X526250Y520271
X526250Y530271
X526250Y540271
X536250Y540271
X536250Y530271
X536250Y520271
X548750Y551271
X558750Y551271
X568750Y551271
X578750Y551271
X588750Y551271
X598750Y551271
X617250Y628771
X617250Y638771
X617250Y648771
X617250Y658771
X617250Y668771
X614250Y712771
X604250Y712771
X604250Y732771
X614250Y732771
X614250Y752771
X604250Y752771
X604250Y772771
X614250Y772771
X574250Y772771
X564250Y772771
X564250Y752771
X574250Y752771
X574250Y732771
X564250Y732771
X564250Y712771
X574250Y712771
X487250Y690771
X477250Y690771
X477250Y680771
X477250Y670771
X477250Y660771
X487250Y660771
X487250Y670771
X487250Y680771
X413750Y655771
X403750Y655771
X403750Y645771
X413750Y645771
X413750Y635771
X403750Y635771
X403750Y625771
X413750Y625771
X413750Y615771
X403750Y615771
X403750Y605771
X413750Y605771
X413750Y595771
X403750Y595771
X403750Y585771
X413750Y585771
X413750Y575771
X403750Y575771
X403750Y565771
X413750Y565771
X393750Y565771
X393750Y575771
X393750Y585771
X393750Y595771
X383750Y595771
X383750Y585771
X383750Y575771
X383750Y565771
X373750Y565771
X373750Y575771
X373750Y585771
X373750Y595771
X363750Y595771
X363750Y585771
X363750Y575771
X363750Y565771
X353750Y565771
X353750Y575771
X353750Y585771
X353750Y595771
X343750Y595771
X343750Y585771
X343750Y575771
X343750Y565771
X343750Y605771
X343750Y615771
X343750Y625771
X343750Y635771
X343750Y645771
X343750Y655771
X353750Y655771
X353750Y645771
X353750Y635771
X353750Y625771
X353750Y615771
X353750Y605771
X363750Y605771
X363750Y615771
X363750Y625771
X363750Y635771
X363750Y645771
X363750Y655771
X373750Y655771
X373750Y645771
X373750Y635771
X373750Y625771
X373750Y615771
X373750Y605771
X383750Y605771
X383750Y615771
X383750Y625771
X383750Y635771
X383750Y645771
X383750Y655771
X393750Y655771
X393750Y645771
X393750Y635771
X393750Y625771
X393750Y615771
X393750Y605771
X419250Y455771
X419250Y445771
X419250Y435771
X419250Y425771
X419250Y415771
X490000Y339521
X510000Y339521
X571250Y238271
X581250Y238271
X581250Y228271
X571250Y228271
X571250Y218271
X581250Y218271
X581250Y208271
X571250Y208271
X571250Y198271
X581250Y198271
X581250Y188271
X571250Y188271
X571250Y178271
X581250Y178271
X581250Y168271
X571250Y168271
X571250Y158271
X581250Y158271
X581250Y148271
X571250Y148271
X591250Y148271
X591250Y158271
X591250Y168271
X591250Y178271
X601250Y178271
X601250Y168271
X601250Y158271
X601250Y148271
X611250Y148271
X611250Y158271
X611250Y168271
X611250Y178271
X621250Y178271
X621250Y168271
X621250Y158271
X621250Y148271
X621250Y188271
X621250Y198271
X621250Y208271
X621250Y218271
X621250Y228271
X621250Y238271
X611250Y238271
X611250Y228271
X611250Y218271
X611250Y208271
X611250Y198271
X611250Y188271
X601250Y188271
X601250Y198271
X601250Y208271
X601250Y218271
X601250Y228271
X601250Y238271
X591250Y238271
X591250Y228271
X591250Y218271
X591250Y208271
X591250Y198271
X591250Y188271
X588750Y471271
X578750Y471271
X598750Y471271
X286250Y765771
X286250Y775771
X276250Y775771
X266250Y775771
X266250Y765771
X276250Y765771
X243750Y655771
X233750Y655771
X233750Y645771
X243750Y645771
X243750Y635771
X233750Y635771
X233750Y625771
X243750Y625771
X243750Y615771
X233750Y615771
X233750Y605771
X243750Y605771
X243750Y595771
X233750Y595771
X233750Y585771
X243750Y585771
X243750Y575771
X233750Y575771
X233750Y565771
X243750Y565771
X223750Y565771
X223750Y575771
X223750Y585771
X223750Y595771
X213750Y595771
X213750Y585771
X213750Y575771
X213750Y565771
X203750Y565771
X203750Y575771
X203750Y585771
X203750Y595771
X203750Y605771
X203750Y615771
X203750Y625771
X203750Y635771
X203750Y645771
X203750Y655771
X193750Y655771
X183750Y655771
X183750Y645771
X193750Y645771
X193750Y635771
X183750Y635771
X183750Y625771
X193750Y625771
X193750Y615771
X183750Y615771
X183750Y605771
X193750Y605771
X193750Y595771
X183750Y595771
X183750Y585771
X193750Y585771
X193750Y575771
X183750Y575771
X183750Y565771
X193750Y565771
X173750Y565771
X173750Y575771
X173750Y585771
X173750Y595771
X173750Y605771
X173750Y615771
X173750Y625771
X173750Y635771
X173750Y645771
X173750Y655771
X161250Y652646
X161250Y642646
X151250Y655771
X143125Y643271
X141250Y655771
X131250Y655771
X133125Y643271
X118750Y655771
X108750Y655771
X98750Y655771
X88750Y655771
X78750Y655771
X76250Y643271
X66250Y643271
X66250Y633271
X76250Y633271
X66250Y623271
X56250Y623271
X56250Y633271
X56250Y643271
X46250Y643271
X46250Y633271
X46250Y623271
X36250Y623271
X36250Y633271
X36250Y643271
X26250Y643271
X26250Y633271
X26250Y623271
X26250Y603271
X36250Y603271
X36250Y593271
X26250Y593271
X26250Y583271
X36250Y583271
X46250Y583271
X46250Y593271
X46250Y603271
X56250Y603271
X56250Y593271
X56250Y583271
X66250Y583271
X66250Y593271
X66250Y603271
X76250Y603271
X76250Y593271
X86250Y593271
X86250Y603271
X101250Y613896
X101250Y623896
X86250Y633271
X86250Y643271
X66250Y655771
X56250Y655771
X46250Y655771
X36250Y655771
X26250Y655771
X27230Y731121
X37230Y731121
X47230Y731121
X47730Y749121
X37730Y749121
X27730Y749121
X71730Y749121
X81730Y749121
X91730Y749121
X92230Y731121
X82230Y731121
X72230Y731121
X132250Y760271
X132250Y770271
X142250Y770271
X142250Y760271
X152250Y760271
X152250Y770271
X162250Y770271
X162250Y760271
X213750Y655771
X223750Y655771
X223750Y645771
X213750Y645771
X213750Y635771
X223750Y635771
X223750Y625771
X213750Y625771
X213750Y615771
X223750Y615771
X223750Y605771
X213750Y605771
X161250Y555771
X151250Y555771
X135250Y544271
X125250Y544271
X115250Y544271
X101250Y565771
X91250Y565771
X57250Y544271
X47250Y544271
X37250Y544271
X36480Y501121
X26480Y501121
X26480Y491121
X36480Y491121
X46480Y491121
X46480Y501121
X56480Y501121
X56480Y491121
X66480Y491121
X66480Y501121
X80600Y456791
X80600Y446791
X80600Y436791
X80600Y426791
X80600Y416791
X61250Y395771
X61250Y385771
X61250Y375771
X51250Y375771
X51250Y385771
X51250Y395771
X41250Y395771
X41250Y385771
X41250Y375771
X31250Y375771
X31250Y385771
X31250Y395771
X26850Y418291
X36850Y418291
X41250Y365771
X51250Y365771
X51250Y355771
X41250Y355771
X41250Y345771
X51250Y345771
X51250Y335771
X41250Y335771
X41250Y325771
X51250Y325771
X51250Y315771
X41250Y315771
X31250Y315771
X31250Y325771
X31250Y335771
X31250Y345771
X31250Y355771
X31250Y365771
X61250Y365771
X61250Y355771
X61250Y345771
X61250Y335771
X61250Y325771
X61250Y315771
X61250Y305771
X61250Y295771
X61250Y285771
X61250Y275771
X61250Y265771
X61250Y255771
X51250Y255771
X51250Y265771
X51250Y275771
X51250Y285771
X51250Y295771
X51250Y305771
X41250Y305771
X41250Y295771
X41250Y285771
X41250Y275771
X41250Y265771
X41250Y255771
X31250Y255771
X31250Y265771
X31250Y275771
X31250Y285771
X31250Y295771
X31250Y305771
X31250Y245771
X31250Y235771
X31250Y225771
X31250Y215771
X31250Y205771
X41250Y205771
X41250Y215771
X41250Y225771
X41250Y235771
X41250Y245771
X51250Y245771
X51250Y235771
X51250Y225771
X51250Y215771
X51250Y205771
X61250Y205771
X61250Y215771
X61250Y225771
X61250Y235771
X61250Y245771
X128750Y481771
X128750Y491771
X128750Y501771
X138750Y501771
X138750Y491771
X138750Y481771
T05
X91730Y768121
X81730Y768121
X71730Y768121
X47230Y768121
X37230Y768121
X27230Y768121
T06
X496750Y753771
X516750Y753771
T07
X150730Y695871
X130730Y714871
X110730Y695871
T08
X137500Y630146
X161250Y622021
X161250Y574521
X113750Y574521
X113750Y622021
T09
X296875Y58271
X423125Y58271
T10
X271375Y490271
X223250Y490271
T11
X80750Y24271
X80750Y87271
X136750Y87271
X136750Y24271
X271375Y329021
X320125Y472771
X323750Y613271
X323750Y768271
X66131Y443822
X54320Y426106
X42040Y443822
X510750Y87271
X510750Y24271
X566750Y24271
X566750Y87271
T12
X122250Y289771
X122250Y344271
X122250Y398771
M30
